/* XPM */ 
static const char * icon[] = {
"27 35 9 1",
" 	c None",
"!	c black",
"#	c white",
"$	c #5C5C5C",
"%	c #589F2D",
"&	c #66B734",
"'	c #DD0000",
"(	c #282E35",
")	c #EE1175",
"!!!!!!!!!!!!!!!!!!!!!!!!!!!",
"!#########################!",
"!#########################!",
"!##$$$$$$$$$$$$$$$$$$$$$##!",
"!##$$$$$$$$$$$$$$$$$$$$$##!",
"!##$$$$%%%%%%%%%%%%%$$$$##!",
"!##$$$$%&&&&&&&&&&&%$$$$##!",
"!##$$$$%&&&&&&&&&&&%$$$$##!",
"!##$''$%&&&&&&&&&&&%$$$$##!",
"!##$''$%&&&&&&&&&&&%$$$$##!",
"!##$$$$%&&&&&&&&&&&%$$$$##!",
"!##$$$$%&&&&&&&&&&&%$$$$##!",
"!##$$$$%&&&&&&&&&&&%$$$$##!",
"!##$$$$%&&&&&&&&&&&%$$$$##!",
"!##$$$$%&&&&&&&&&&&%$$$$##!",
"!##$$$$%&&&&&&&&&&&%$$$$##!",
"!##$$$$%%%%%%%%%%%%%$$$$##!",
"!##$$$$$$$$$$$$$$$$$$$$###!",
"!##$$$$$$$$$$$$$$$$$$$####!",
"!#########################!",
"!#########################!",
"!####((##############))###!",
"!####((#############))))##!",
"!##((((((########))#))))##!",
"!##((((((#######))))#))###!",
"!####((#########))))######!",
"!####((##########))#######!",
"!#########################!",
"!#########################!",
"!#########################!",
"!#######((((##((((########!",
"!#######((((##((((########!",
"!#########################!",
"!##########################",
"!!!!!!!!!!!!!!!!!!!!!!!!!!!"};